G04 DipTrace 3.0.0.2*
G04 BottomMask.gbr*
%MOIN*%
G04 #@! TF.FileFunction,Soldermask,Bot*
G04 #@! TF.Part,Single*
%ADD35C,0.03937*%
%ADD44R,0.052X0.052*%
%FSLAX26Y26*%
G04*
G70*
G90*
G75*
G01*
G04 BotMask*
%LPD*%
D35*
X481500Y1594000D3*
X1606500D3*
X481500Y519000D3*
X1606500D3*
D44*
X594000Y1044000D3*
Y994000D3*
Y944000D3*
Y1094000D3*
Y1144000D3*
Y1194000D3*
Y1244000D3*
X644000D3*
Y1194000D3*
Y1144000D3*
Y1094000D3*
Y1044000D3*
Y994000D3*
Y944000D3*
X544000Y1244000D3*
Y1194000D3*
Y1144000D3*
Y1094000D3*
Y1044000D3*
Y994000D3*
Y944000D3*
X494000D3*
Y994000D3*
Y1044000D3*
Y1094000D3*
Y1144000D3*
Y1194000D3*
Y1244000D3*
X1019000Y944000D3*
Y994000D3*
Y1044000D3*
Y1094000D3*
Y1144000D3*
Y1194000D3*
Y1244000D3*
X1069000D3*
Y1194000D3*
Y1144000D3*
Y1094000D3*
Y1044000D3*
Y994000D3*
Y944000D3*
X1119000D3*
Y994000D3*
Y1044000D3*
Y1094000D3*
Y1144000D3*
Y1194000D3*
Y1244000D3*
X1169000D3*
Y1194000D3*
Y1144000D3*
Y1094000D3*
Y1044000D3*
Y994000D3*
Y944000D3*
X644000Y756500D3*
X594000D3*
X544000D3*
X494000D3*
X644000Y706500D3*
X594000D3*
X544000D3*
X494000D3*
Y656500D3*
X544000D3*
X594000D3*
X644000D3*
Y606500D3*
X594000D3*
X544000D3*
X494000D3*
X1094000Y756500D3*
X1144000D3*
X1194000D3*
Y706500D3*
X1144000D3*
X1094000D3*
Y656500D3*
X1144000D3*
X1194000D3*
Y606500D3*
X1144000D3*
X1094000D3*
X1244000Y756500D3*
Y706500D3*
Y656500D3*
Y606500D3*
G36*
X994000Y1265000D2*
X1187751D1*
Y1223000D1*
X994000D1*
Y1265000D1*
G37*
G36*
Y1215500D2*
X1187751D1*
Y1173500D1*
X994000D1*
Y1215500D1*
G37*
G36*
Y1164500D2*
X1187751D1*
Y1122500D1*
X994000D1*
Y1164500D1*
G37*
G36*
Y1115000D2*
X1187751D1*
Y1073000D1*
X994000D1*
Y1115000D1*
G37*
G36*
Y1064000D2*
X1187751D1*
Y1022000D1*
X994000D1*
Y1064000D1*
G37*
G36*
Y1014500D2*
X1187751D1*
Y972500D1*
X994000D1*
Y1014500D1*
G37*
G36*
Y965000D2*
X1187751D1*
Y923000D1*
X994000D1*
Y965000D1*
G37*
G36*
X473500Y1265000D2*
X667251D1*
Y1223000D1*
X473500D1*
Y1265000D1*
G37*
G36*
Y1215500D2*
X667251D1*
Y1173500D1*
X473500D1*
Y1215500D1*
G37*
G36*
Y1164500D2*
X667251D1*
Y1122500D1*
X473500D1*
Y1164500D1*
G37*
G36*
Y1115000D2*
X667251D1*
Y1073000D1*
X473500D1*
Y1115000D1*
G37*
G36*
Y1064000D2*
X667251D1*
Y1022000D1*
X473500D1*
Y1064000D1*
G37*
G36*
Y1014500D2*
X667251D1*
Y972500D1*
X473500D1*
Y1014500D1*
G37*
G36*
Y965000D2*
X667251D1*
Y923000D1*
X473500D1*
Y965000D1*
G37*
G36*
X472000Y777500D2*
X665751D1*
Y735500D1*
X472000D1*
Y777500D1*
G37*
G36*
Y726500D2*
X665751D1*
Y684500D1*
X472000D1*
Y726500D1*
G37*
G36*
Y677000D2*
X665751D1*
Y635000D1*
X472000D1*
Y677000D1*
G37*
G36*
X1069000Y777500D2*
X1262751D1*
Y735500D1*
X1069000D1*
Y777500D1*
G37*
G36*
Y726500D2*
X1262751D1*
Y684500D1*
X1069000D1*
Y726500D1*
G37*
G36*
Y677000D2*
X1262751D1*
Y635000D1*
X1069000D1*
Y677000D1*
G37*
G36*
Y627500D2*
X1262751D1*
Y585500D1*
X1069000D1*
Y627500D1*
G37*
G36*
X472000D2*
X665751D1*
Y585500D1*
X472000D1*
Y627500D1*
G37*
M02*
