M48
INCH
T01C0.013
T02C0.0191
T03C0.028
T04C0.0394
%
T04
X+004815Y+015940
X+016065Y+015940
X+004815Y+005190
X+016065Y+005190
T03
X+005940Y+010440
X+005940Y+009940
X+005940Y+009440
X+005940Y+010940
X+005940Y+011440
X+005940Y+011940
X+005940Y+012440
X+006440Y+012440
X+006440Y+011940
X+006440Y+011440
X+006440Y+010940
X+006440Y+010440
X+006440Y+009940
X+006440Y+009440
X+005440Y+012440
X+005440Y+011940
X+005440Y+011440
X+005440Y+010940
X+005440Y+010440
X+005440Y+009940
X+005440Y+009440
X+004940Y+009440
X+004940Y+009940
X+004940Y+010440
X+004940Y+010940
X+004940Y+011440
X+004940Y+011940
X+004940Y+012440
X+010190Y+009440
X+010190Y+009940
X+010190Y+010440
X+010190Y+010940
X+010190Y+011440
X+010190Y+011940
X+010190Y+012440
X+010690Y+012440
X+010690Y+011940
X+010690Y+011440
X+010690Y+010940
X+010690Y+010440
X+010690Y+009940
X+010690Y+009440
X+011190Y+009440
X+011190Y+009940
X+011190Y+010440
X+011190Y+010940
X+011190Y+011440
X+011190Y+011940
X+011190Y+012440
X+011690Y+012440
X+011690Y+011940
X+011690Y+011440
X+011690Y+010940
X+011690Y+010440
X+011690Y+009940
X+011690Y+009440
X+006440Y+007565
X+005940Y+007565
X+005440Y+007565
X+004940Y+007565
X+006440Y+007065
X+005940Y+007065
X+005440Y+007065
X+004940Y+007065
X+004940Y+006565
X+005440Y+006565
X+005940Y+006565
X+006440Y+006565
X+006440Y+006065
X+005940Y+006065
X+005440Y+006065
X+004940Y+006065
X+010940Y+007565
X+011440Y+007565
X+011940Y+007565
X+011940Y+007065
X+011440Y+007065
X+010940Y+007065
X+010940Y+006565
X+011440Y+006565
X+011940Y+006565
X+011940Y+006065
X+011440Y+006065
X+010940Y+006065
X+012440Y+007565
X+012440Y+007065
X+012440Y+006565
X+012440Y+006065
T02
X+009815Y+014065
X+007940Y+013815
X+008565Y+005315
X+015690Y+012940
X+015690Y+008815
X+007940Y+006565
T01
X+013935Y+007505
T00
M30
