G04 DipTrace 3.0.0.2*
G04 Top.gbr*
%MOIN*%
G04 #@! TF.FileFunction,Copper,L1,Top*
G04 #@! TF.Part,Single*
G04 #@! TA.AperFunction,Conductor*
%ADD13C,0.015*%
%ADD14C,0.044*%
%ADD15C,0.023622*%
G04 #@! TA.AperFunction,CopperBalancing*
%ADD16C,0.02*%
G04 #@! TA.AperFunction,Conductor*
%ADD17C,0.01*%
%ADD18C,0.012992*%
G04 #@! TA.AperFunction,CopperBalancing*
%ADD19C,0.013*%
%ADD21R,0.051181X0.059055*%
%ADD22R,0.059055X0.051181*%
%ADD24R,0.015748X0.05315*%
%ADD25R,0.062992X0.055118*%
%ADD26R,0.057087X0.051181*%
%ADD27R,0.074803X0.074803*%
%ADD29R,0.144882X0.05*%
G04 #@! TA.AperFunction,ComponentPad*
%ADD30R,0.044X0.044*%
%ADD31R,0.07874X0.023622*%
G04 #@! TA.AperFunction,ViaPad*
%ADD32C,0.04*%
%ADD34C,0.026*%
%FSLAX26Y26*%
G04*
G70*
G90*
G75*
G01*
G04 Top*
%LPD*%
X1106500Y1494000D2*
D13*
Y1406500D1*
X494000Y1244000D2*
D14*
X657630D1*
D15*
X719000D1*
X494000Y606500D2*
D14*
X657630D1*
D15*
X719000D1*
X719098Y531598D2*
D16*
Y606402D1*
X719000Y606500D1*
X731402Y1306598D2*
D13*
Y1256402D1*
X719000Y1244000D1*
X731402Y1306598D2*
D16*
Y1256402D1*
X719000Y1244000D1*
X594000D2*
D14*
X657630D1*
X544000D2*
X657630D1*
X544000Y606500D2*
X657630D1*
X594000D2*
X657630D1*
X644000Y1244000D2*
X660000D1*
D15*
X719000D1*
X644000Y606500D2*
D14*
X655500D1*
D15*
X719000D1*
X1031697Y1406500D2*
D16*
X981500D1*
X793902Y531598D2*
X856500D1*
Y531500D1*
X731402Y1381402D2*
X793902D1*
X794000Y1381500D1*
X1568803Y1219000D2*
X1569000D1*
Y1294000D1*
X1568803Y806500D2*
Y881500D1*
X1569000D1*
X1244000Y756500D2*
D14*
X1071709D1*
D15*
X1010339D1*
X1169000Y1244000D2*
D14*
X992969D1*
D15*
X931598D1*
X1004138Y1494000D2*
D13*
Y1434059D1*
X1031697Y1406500D1*
X1019000Y1244000D2*
D14*
X993000D1*
X1094000Y756500D2*
X1069500D1*
D15*
X1010339D1*
X1069000Y1244000D2*
D14*
X992969D1*
X1119000D2*
X992969D1*
X1194000Y756500D2*
X1071709D1*
X1144000D2*
X1071709D1*
X1394000Y806500D2*
D17*
X1344000D1*
X1281500Y744000D1*
Y619000D1*
X1269000Y606500D1*
X1244000D1*
X1194000D1*
X1144000D1*
X1094000D1*
X1010339D1*
X1194000D2*
D3*
X1144000D2*
D3*
X1244000D2*
D3*
D14*
X1071709D1*
D15*
X1010339D1*
X719000Y656500D2*
D17*
X794000D1*
X1393500Y750500D2*
Y706500D1*
X1394000D1*
X494000Y656500D2*
D14*
X657630D1*
D15*
X719000D1*
X544000D2*
D14*
X494000D1*
X594000D2*
X494000D1*
X644000D2*
X494000D1*
X719000Y706500D2*
D17*
X869000D1*
X919000Y656500D1*
Y581500D1*
X956500Y544000D1*
X1331500D1*
X1394000Y606500D1*
X494000Y706500D2*
D14*
X657630D1*
D15*
X719000D1*
X544000D2*
D14*
X494000D1*
X594000D2*
X494000D1*
X644000D2*
X494000D1*
X719000Y756500D2*
D17*
X869000D1*
X944000Y681500D1*
Y581500D1*
X955122Y570378D1*
X1295378D1*
X1306500Y581500D1*
Y644000D1*
X1319000Y656500D1*
X1531500D1*
X1568803Y693803D1*
Y706500D1*
X494000Y756500D2*
D14*
X657630D1*
D15*
X719000D1*
X644000D2*
D14*
X494000D1*
X594000D2*
X494000D1*
X544000D2*
X494000D1*
X931598Y944000D2*
D17*
X1019000D1*
X1069000D1*
X1119000D1*
X1356500D1*
X1394000Y981500D1*
Y1019000D1*
X1019000Y944000D2*
D3*
X1069000D2*
D3*
X1119000D2*
D3*
X1169000D2*
D14*
X992969D1*
D15*
X931598D1*
X1394000Y1119000D2*
D17*
X1356500D1*
X1231500Y994000D1*
X1169000D1*
X1119000D1*
X1069000D1*
X1019000D1*
X931598D1*
X1069000D2*
D3*
X1119000D2*
D3*
X1169000D2*
D3*
D14*
X992969D1*
D15*
X931598D1*
X1568803Y1119000D2*
D17*
X1544000D1*
X1506500Y1156500D1*
X1331500D1*
X1306500Y1181500D1*
Y1231500D1*
X1256500Y1281500D1*
X831500D1*
X806500Y1256500D1*
Y1006500D1*
X744000Y944000D1*
X719000D1*
X494000D2*
D14*
X657630D1*
D15*
X719000D1*
X644000D2*
D14*
X594000D1*
X544000D2*
X594000D1*
X544000D2*
X494000D1*
X1394000Y1219000D2*
D17*
X1369000D1*
X1281500Y1306500D1*
X829000D1*
X781500Y1259000D1*
Y1119000D1*
X756500Y1094000D1*
X719000D1*
X494000D2*
D14*
X657630D1*
D15*
X719000D1*
X644000D2*
D14*
X594000D1*
X544000D1*
X494000D1*
X1181303Y1502858D2*
D18*
Y1599315D1*
X1190161D1*
X920476D2*
X929335D1*
Y1502858D1*
X1190161Y1599315D2*
Y1656205D1*
X1164177Y1682189D1*
X946461D1*
X920476Y1656205D1*
Y1599315D1*
X494000Y1194000D2*
D14*
X657630D1*
D15*
X719000D1*
X544000D2*
D14*
X657630D1*
X594000D2*
X657630D1*
X644000D2*
X594000D1*
X494000Y1144000D2*
X657630D1*
D15*
X719000D1*
X644000D2*
D14*
X594000D1*
X544000D1*
X657630D1*
X494000Y1044000D2*
X657630D1*
D15*
X719000D1*
X644000D2*
D14*
X594000D1*
X544000D1*
X494000D1*
Y994000D2*
X657630D1*
D15*
X719000D1*
X644000D2*
D14*
X594000D1*
X544000D1*
X494000D1*
X1244000Y706500D2*
X1071709D1*
D15*
X1010339D1*
X1094000D2*
D14*
X1244000D1*
X1144000D2*
X1244000D1*
X1194000D2*
X1244000D1*
Y656500D2*
X1071709D1*
D15*
X1010339D1*
X1094000D2*
D14*
X1244000D1*
X1144000D2*
X1244000D1*
X1194000D2*
X1244000D1*
X1169000Y1044000D2*
X992969D1*
D15*
X931598D1*
X1019000D2*
D14*
X1169000D1*
X1069000D2*
X1169000D1*
X1119000D2*
X1169000D1*
Y1094000D2*
X992969D1*
D15*
X931598D1*
X1019000D2*
D14*
X1169000D1*
X1069000D2*
X1169000D1*
X1119000D2*
X1169000D1*
Y1144000D2*
X992969D1*
D15*
X931598D1*
X1019000D2*
D14*
X1169000D1*
X1069000D2*
X1169000D1*
X1119000D2*
X1169000D1*
Y1194000D2*
X992969D1*
D15*
X931598D1*
X1019000D2*
D14*
X1069000D1*
X1119000D1*
X1169000D1*
D32*
X981500Y1406500D3*
X794000Y1381500D3*
X856500Y531500D3*
X1569000Y1294000D3*
Y881500D3*
X794000Y656500D3*
D34*
X1393500Y750500D3*
X431000Y1626631D2*
D16*
X442293D1*
X520707D2*
X869129D1*
X1241488D2*
X1567293D1*
X1645707D2*
X1657000D1*
X531332Y1606762D2*
X869129D1*
X1241488D2*
X1556668D1*
X532504Y1586894D2*
X869129D1*
X1241488D2*
X1555496D1*
X525004Y1567025D2*
X869129D1*
X1241488D2*
X1562996D1*
X431000Y1547156D2*
X463504D1*
X499496D2*
X875028D1*
X1235589D2*
X1588504D1*
X1624496D2*
X1657000D1*
X431000Y1527287D2*
X875028D1*
X1235589D2*
X1657000D1*
X431000Y1507419D2*
X875028D1*
X1235589D2*
X1657000D1*
X431000Y1487550D2*
X875028D1*
X1235589D2*
X1657000D1*
X431000Y1467681D2*
X875028D1*
X1235589D2*
X1657000D1*
X431000Y1447812D2*
X973465D1*
X1154887D2*
X1657000D1*
X431000Y1427944D2*
X944793D1*
X1154887D2*
X1657000D1*
X431000Y1408075D2*
X679089D1*
X826957D2*
X938739D1*
X1154887D2*
X1657000D1*
X431000Y1388206D2*
X679089D1*
X836253D2*
X943035D1*
X1154887D2*
X1657000D1*
X431000Y1368337D2*
X679089D1*
X834613D2*
X965067D1*
X1154887D2*
X1657000D1*
X431000Y1348469D2*
X679089D1*
X819965D2*
X1657000D1*
X431000Y1328600D2*
X679089D1*
X783715D2*
X813699D1*
X1296801D2*
X1545379D1*
X1592621D2*
X1657000D1*
X431000Y1308731D2*
X679089D1*
X1317739D2*
X1528933D1*
X1609067D2*
X1657000D1*
X431000Y1288862D2*
X679089D1*
X1337621D2*
X1526512D1*
X1611488D2*
X1657000D1*
X431000Y1268993D2*
X449207D1*
X1357465D2*
X1534753D1*
X1603247D2*
X1657000D1*
X431000Y1249125D2*
X449207D1*
X837583D2*
X869441D1*
X431000Y1229256D2*
X449207D1*
X834301D2*
X869441D1*
X431000Y1209387D2*
X449207D1*
X834301D2*
X869441D1*
X431000Y1189518D2*
X449207D1*
X834301D2*
X869441D1*
X431000Y1169650D2*
X449207D1*
X834301D2*
X869441D1*
X431000Y1149781D2*
X449207D1*
X834301D2*
X869441D1*
X431000Y1129912D2*
X449207D1*
X834301D2*
X869441D1*
X431000Y1110043D2*
X449207D1*
X834301D2*
X869441D1*
X431000Y1090175D2*
X449207D1*
X834301D2*
X869441D1*
X431000Y1070306D2*
X449207D1*
X834301D2*
X869441D1*
X1346293D2*
X1657000D1*
X431000Y1050437D2*
X449207D1*
X834301D2*
X869441D1*
X431000Y1030568D2*
X449207D1*
X834301D2*
X869441D1*
X431000Y1010699D2*
X449207D1*
X834301D2*
X869441D1*
X431000Y990831D2*
X449207D1*
X828988D2*
X869441D1*
X431000Y970962D2*
X449207D1*
X809417D2*
X869441D1*
X1419535D2*
X1657000D1*
X431000Y951093D2*
X449207D1*
X789575D2*
X869441D1*
X1402075D2*
X1657000D1*
X431000Y931224D2*
X449207D1*
X781176D2*
X869441D1*
X1382192D2*
X1657000D1*
X431000Y911356D2*
X449207D1*
X688793D2*
X963308D1*
X1213793D2*
X1539207D1*
X1598793D2*
X1657000D1*
X431000Y891487D2*
X1527449D1*
X1610551D2*
X1657000D1*
X431000Y871618D2*
X1527411D1*
X1610589D2*
X1657000D1*
X431000Y851749D2*
X1298777D1*
X431000Y831881D2*
X1298777D1*
X431000Y812012D2*
X1298777D1*
X431000Y792143D2*
X449207D1*
X688793D2*
X1024324D1*
X431000Y772274D2*
X449207D1*
X891684D2*
X948152D1*
X431000Y752406D2*
X449207D1*
X911567D2*
X948152D1*
X431000Y732537D2*
X449207D1*
X931449D2*
X948152D1*
X431000Y712668D2*
X449207D1*
X431000Y692799D2*
X449207D1*
X431000Y672930D2*
X449207D1*
X833364D2*
X864089D1*
X431000Y653062D2*
X449207D1*
X836644D2*
X883972D1*
X1566528D2*
X1657000D1*
X431000Y633193D2*
X449207D1*
X829496D2*
X891199D1*
X431000Y613324D2*
X449207D1*
X781176D2*
X891199D1*
X431000Y593455D2*
X449207D1*
X781176D2*
X891199D1*
X431000Y573587D2*
X449207D1*
X842308D2*
X892449D1*
X431000Y553718D2*
X444207D1*
X518793D2*
X670692D1*
X892739D2*
X908308D1*
X1379692D2*
X1569207D1*
X1643793D2*
X1657000D1*
X530707Y533849D2*
X670692D1*
X899223D2*
X928192D1*
X1359808D2*
X1557293D1*
X532739Y513980D2*
X670692D1*
X895356D2*
X1555261D1*
X526293Y494112D2*
X670692D1*
X874848D2*
X1561707D1*
X431000Y474243D2*
X458348D1*
X504652D2*
X1583348D1*
X1629652D2*
X1657000D1*
X431000Y454374D2*
X1657000D1*
X431000Y434505D2*
X1657000D1*
X1152891Y1454492D2*
Y1356172D1*
X985306D1*
Y1365899D1*
X978299Y1365825D1*
X971975Y1366827D1*
X965887Y1368806D1*
X960182Y1371713D1*
X955003Y1375475D1*
X950475Y1380003D1*
X946713Y1385182D1*
X943806Y1390887D1*
X941827Y1396975D1*
X940825Y1403299D1*
Y1409701D1*
X941827Y1416025D1*
X943806Y1422113D1*
X946713Y1427818D1*
X950475Y1432997D1*
X955003Y1437525D1*
X960182Y1441287D1*
X965887Y1444194D1*
X971975Y1446173D1*
X975453Y1446837D1*
X971631Y1454499D1*
X877039D1*
Y1551217D1*
X902077D1*
X902038Y1552898D1*
X871134Y1552924D1*
Y1645705D1*
X893203D1*
X889000Y1646500D1*
X429000D1*
Y429000D1*
X1659000D1*
Y560680D1*
X1633177Y560699D1*
X1638648Y556642D1*
X1644142Y551148D1*
X1648707Y544865D1*
X1652234Y537944D1*
X1654634Y530556D1*
X1655849Y522883D1*
Y515117D1*
X1654634Y507444D1*
X1652234Y500056D1*
X1648707Y493135D1*
X1644142Y486852D1*
X1638648Y481358D1*
X1632365Y476793D1*
X1625444Y473266D1*
X1618056Y470866D1*
X1610383Y469651D1*
X1602617D1*
X1594944Y470866D1*
X1587556Y473266D1*
X1580635Y476793D1*
X1574352Y481358D1*
X1568858Y486852D1*
X1564293Y493135D1*
X1560766Y500056D1*
X1558366Y507444D1*
X1557151Y515117D1*
Y522883D1*
X1558366Y530556D1*
X1560766Y537944D1*
X1564293Y544865D1*
X1568858Y551148D1*
X1574352Y556642D1*
X1579866Y560693D1*
X1384702Y560699D1*
X1348256Y524382D1*
X1343213Y521012D1*
X1337522Y518912D1*
X1331500Y518199D1*
X1331160Y518213D1*
X954476Y518280D1*
X948528Y519463D1*
X943020Y522001D1*
X938256Y525756D1*
X938025Y526007D1*
X899382Y564744D1*
X896012Y569787D1*
X893912Y575478D1*
X893199Y581500D1*
X893213Y581840D1*
X893199Y645836D1*
X858303Y680710D1*
X827008Y680482D1*
X830353Y675022D1*
X832803Y669108D1*
X834298Y662882D1*
X834801Y656500D1*
X834298Y650118D1*
X832803Y643892D1*
X830353Y637978D1*
X827008Y632518D1*
X822850Y627650D1*
X817982Y623492D1*
X812522Y620147D1*
X806608Y617697D1*
X800382Y616202D1*
X794000Y615699D1*
X787618Y616202D1*
X781392Y617697D1*
X779173Y618516D1*
X779171Y581932D1*
X840293Y581927D1*
Y568919D1*
X846975Y571173D1*
X853299Y572175D1*
X859701D1*
X866025Y571173D1*
X872113Y569194D1*
X877818Y566287D1*
X882997Y562525D1*
X887525Y557997D1*
X891287Y552818D1*
X894194Y547113D1*
X896173Y541025D1*
X897175Y534701D1*
Y528299D1*
X896173Y521975D1*
X894194Y515887D1*
X891287Y510182D1*
X887525Y505003D1*
X882997Y500475D1*
X877818Y496713D1*
X872113Y493806D1*
X866025Y491827D1*
X859701Y490825D1*
X853299D1*
X846975Y491827D1*
X840285Y494084D1*
X840293Y481270D1*
X672707D1*
Y563701D1*
X502761Y563699D1*
X507365Y561207D1*
X513648Y556642D1*
X519142Y551148D1*
X523707Y544865D1*
X527234Y537944D1*
X529634Y530556D1*
X530849Y522883D1*
Y515117D1*
X529634Y507444D1*
X527234Y500056D1*
X523707Y493135D1*
X519142Y486852D1*
X513648Y481358D1*
X507365Y476793D1*
X500444Y473266D1*
X493056Y470866D1*
X485383Y469651D1*
X477617D1*
X469944Y470866D1*
X462556Y473266D1*
X455635Y476793D1*
X449352Y481358D1*
X443858Y486852D1*
X439293Y493135D1*
X435766Y500056D1*
X433366Y507444D1*
X432151Y515117D1*
Y522883D1*
X433366Y530556D1*
X435766Y537944D1*
X439293Y544865D1*
X443858Y551148D1*
X449352Y556642D1*
X455635Y561207D1*
X460310Y563697D1*
X451201Y563699D1*
X451199Y799301D1*
X686801D1*
Y789105D1*
X779171Y789110D1*
Y782274D1*
X871024Y782220D1*
X876972Y781037D1*
X882480Y778499D1*
X887243Y774743D1*
X887474Y774493D1*
X950193Y711794D1*
X950169Y789110D1*
X1022331Y789112D1*
X1027636Y792993D1*
X1033621Y796042D1*
X1040008Y798118D1*
X1046642Y799168D1*
X1091709Y799301D1*
X1286801Y799299D1*
Y785745D1*
X1300739Y799726D1*
X1300759Y852301D1*
X1538024D1*
X1537975Y855003D1*
X1534213Y860182D1*
X1531306Y865887D1*
X1529327Y871975D1*
X1528325Y878299D1*
Y884701D1*
X1529327Y891025D1*
X1531306Y897113D1*
X1534213Y902818D1*
X1537975Y907997D1*
X1542503Y912525D1*
X1547682Y916287D1*
X1553387Y919194D1*
X1559475Y921173D1*
X1565799Y922175D1*
X1572201D1*
X1578525Y921173D1*
X1584613Y919194D1*
X1590318Y916287D1*
X1595497Y912525D1*
X1600025Y907997D1*
X1603787Y902818D1*
X1606694Y897113D1*
X1608673Y891025D1*
X1609675Y884701D1*
Y878299D1*
X1608673Y871975D1*
X1606694Y865887D1*
X1603787Y860182D1*
X1599592Y854534D1*
X1605562Y852301D1*
X1659031D1*
X1659000Y973180D1*
X1418453Y973199D1*
X1415999Y968020D1*
X1412243Y963257D1*
X1373256Y924382D1*
X1368213Y921012D1*
X1362522Y918913D1*
X1356500Y918199D1*
X1356160Y918214D1*
X1211773Y918199D1*
X1211801Y901199D1*
X976201D1*
Y904598D1*
X970605Y907507D1*
X965265Y911382D1*
X871429Y911388D1*
X871428Y1176612D1*
Y1255724D1*
X842164Y1255699D1*
X832314Y1245828D1*
X832220Y1004476D1*
X831037Y998528D1*
X828499Y993020D1*
X824743Y988257D1*
X824493Y988026D1*
X779196Y942709D1*
X779171Y911388D1*
X686787D1*
X686801Y901199D1*
X451201D1*
Y1136799D1*
Y1286799D1*
X681067D1*
X681073Y1427793D1*
X781730D1*
Y1420409D1*
X787618Y1421798D1*
X794000Y1422301D1*
X800382Y1421798D1*
X806608Y1420303D1*
X812522Y1417853D1*
X817982Y1414508D1*
X822850Y1410350D1*
X827008Y1405482D1*
X830353Y1400022D1*
X832803Y1394108D1*
X834298Y1387882D1*
X834801Y1381500D1*
X834298Y1375118D1*
X832803Y1368892D1*
X830353Y1362978D1*
X827008Y1357518D1*
X822850Y1352650D1*
X817982Y1348492D1*
X812522Y1345147D1*
X806608Y1342697D1*
X800382Y1341202D1*
X794000Y1340699D1*
X787618Y1341202D1*
X781718Y1342605D1*
X781730Y1295699D1*
X812244Y1326118D1*
X817287Y1329488D1*
X822978Y1331587D1*
X829000Y1332301D1*
X829340Y1332287D1*
X1283524Y1332220D1*
X1289472Y1331037D1*
X1294980Y1328499D1*
X1299743Y1324743D1*
X1299974Y1324493D1*
X1359710Y1264777D1*
X1538180Y1264801D1*
X1537975Y1267503D1*
X1534213Y1272682D1*
X1531306Y1278387D1*
X1529327Y1284475D1*
X1528325Y1290799D1*
Y1297201D1*
X1529327Y1303525D1*
X1531306Y1309613D1*
X1534213Y1315318D1*
X1537975Y1320497D1*
X1542503Y1325025D1*
X1547682Y1328787D1*
X1553387Y1331694D1*
X1559475Y1333673D1*
X1565799Y1334675D1*
X1572201D1*
X1578525Y1333673D1*
X1584613Y1331694D1*
X1590318Y1328787D1*
X1595497Y1325025D1*
X1600025Y1320497D1*
X1603787Y1315318D1*
X1606694Y1309613D1*
X1608673Y1303525D1*
X1609675Y1297201D1*
Y1290799D1*
X1608673Y1284475D1*
X1606694Y1278387D1*
X1603787Y1272682D1*
X1599795Y1267255D1*
X1605562Y1264801D1*
X1659031D1*
X1659000Y1646500D1*
X1217476D1*
X1217458Y1645697D1*
X1239505Y1645705D1*
Y1552924D1*
X1208606D1*
X1209008Y1551217D1*
X1233600D1*
Y1454499D1*
X1152857D1*
X530849Y1590117D2*
X529634Y1582444D1*
X527234Y1575056D1*
X523707Y1568135D1*
X519142Y1561852D1*
X513648Y1556358D1*
X507365Y1551793D1*
X500444Y1548266D1*
X493056Y1545866D1*
X485383Y1544651D1*
X477617D1*
X469944Y1545866D1*
X462556Y1548266D1*
X455635Y1551793D1*
X449352Y1556358D1*
X443858Y1561852D1*
X439293Y1568135D1*
X435766Y1575056D1*
X433366Y1582444D1*
X432151Y1590117D1*
Y1597883D1*
X433366Y1605556D1*
X435766Y1612944D1*
X439293Y1619865D1*
X443858Y1626148D1*
X449352Y1631642D1*
X455635Y1636207D1*
X462556Y1639734D1*
X469944Y1642134D1*
X477617Y1643349D1*
X485383D1*
X493056Y1642134D1*
X500444Y1639734D1*
X507365Y1636207D1*
X513648Y1631642D1*
X519142Y1626148D1*
X523707Y1619865D1*
X527234Y1612944D1*
X529634Y1605556D1*
X530849Y1597883D1*
Y1590117D1*
X1655849D2*
X1654634Y1582444D1*
X1652234Y1575056D1*
X1648707Y1568135D1*
X1644142Y1561852D1*
X1638648Y1556358D1*
X1632365Y1551793D1*
X1625444Y1548266D1*
X1618056Y1545866D1*
X1610383Y1544651D1*
X1602617D1*
X1594944Y1545866D1*
X1587556Y1548266D1*
X1580635Y1551793D1*
X1574352Y1556358D1*
X1568858Y1561852D1*
X1564293Y1568135D1*
X1560766Y1575056D1*
X1558366Y1582444D1*
X1557151Y1590117D1*
Y1597883D1*
X1558366Y1605556D1*
X1560766Y1612944D1*
X1564293Y1619865D1*
X1568858Y1626148D1*
X1574352Y1631642D1*
X1580635Y1636207D1*
X1587556Y1639734D1*
X1594944Y1642134D1*
X1602617Y1643349D1*
X1610383D1*
X1618056Y1642134D1*
X1625444Y1639734D1*
X1632365Y1636207D1*
X1638648Y1631642D1*
X1644142Y1626148D1*
X1648707Y1619865D1*
X1652234Y1612944D1*
X1654634Y1605556D1*
X1655849Y1597883D1*
Y1590117D1*
X1487241Y1073206D2*
X1347202Y1073199D1*
X1338808Y1064822D1*
X1659008Y1064801D1*
X1659000Y1073180D1*
X1487239Y1073199D1*
X1563773Y652301D2*
X1659008D1*
X1659000Y660680D1*
X1572161Y660699D1*
X1563761Y652274D1*
X1106500Y1406500D2*
D19*
Y1356211D1*
Y1406500D2*
X1152852D1*
X681113Y1306598D2*
X781690D1*
X719098Y531598D2*
Y481310D1*
X672747Y531598D2*
X719098D1*
X1568803Y1064761D2*
Y973239D1*
Y652261D2*
Y560739D1*
X594000Y1286761D2*
Y1244000D1*
X644000Y1286761D2*
Y1244000D1*
X544000Y1286761D2*
Y1244000D1*
X494000Y1286761D2*
Y1244000D1*
X451239D2*
X494000D1*
X644000Y606500D2*
Y563739D1*
X594000Y606500D2*
Y563739D1*
X544000Y606500D2*
Y563739D1*
X494000Y606500D2*
Y563739D1*
X451239Y606500D2*
X494000D1*
X719000D2*
X779131D1*
D21*
X1106500Y1406500D3*
X1031697D3*
D22*
X731402Y1306598D3*
Y1381402D3*
D21*
X719098Y531598D3*
X793902D3*
D24*
X1106500Y1494000D3*
X1080909D3*
X1055319D3*
X1029728D3*
X1004138D3*
D25*
X1181303Y1502858D3*
X929335D3*
D26*
X1190161Y1599315D3*
X920476D3*
D27*
X1102563D3*
X1008075D3*
D29*
X1394000Y1219000D3*
Y1119000D3*
Y1019000D3*
X1568803D3*
Y1119000D3*
Y1219000D3*
X1394000Y806500D3*
Y706500D3*
Y606500D3*
X1568803D3*
Y706500D3*
Y806500D3*
D30*
X594000Y1044000D3*
Y994000D3*
Y944000D3*
Y1094000D3*
Y1144000D3*
Y1194000D3*
Y1244000D3*
X644000D3*
Y1194000D3*
Y1144000D3*
Y1094000D3*
Y1044000D3*
Y994000D3*
Y944000D3*
X544000Y1244000D3*
Y1194000D3*
Y1144000D3*
Y1094000D3*
Y1044000D3*
Y994000D3*
Y944000D3*
X494000D3*
Y994000D3*
Y1044000D3*
Y1094000D3*
Y1144000D3*
Y1194000D3*
Y1244000D3*
X1019000Y944000D3*
Y994000D3*
Y1044000D3*
Y1094000D3*
Y1144000D3*
Y1194000D3*
Y1244000D3*
X1069000D3*
Y1194000D3*
Y1144000D3*
Y1094000D3*
Y1044000D3*
Y994000D3*
Y944000D3*
X1119000D3*
Y994000D3*
Y1044000D3*
Y1094000D3*
Y1144000D3*
Y1194000D3*
Y1244000D3*
X1169000D3*
Y1194000D3*
Y1144000D3*
Y1094000D3*
Y1044000D3*
Y994000D3*
Y944000D3*
X644000Y756500D3*
X594000D3*
X544000D3*
X494000D3*
X644000Y706500D3*
X594000D3*
X544000D3*
X494000D3*
Y656500D3*
X544000D3*
X594000D3*
X644000D3*
Y606500D3*
X594000D3*
X544000D3*
X494000D3*
X1094000Y756500D3*
X1144000D3*
X1194000D3*
Y706500D3*
X1144000D3*
X1094000D3*
Y656500D3*
X1144000D3*
X1194000D3*
Y606500D3*
X1144000D3*
X1094000D3*
X1244000Y756500D3*
Y706500D3*
Y656500D3*
Y606500D3*
D31*
X719000Y1244000D3*
Y1194000D3*
Y1144000D3*
Y1094000D3*
Y1044000D3*
Y994000D3*
Y944000D3*
X931598D3*
Y994000D3*
Y1044000D3*
Y1094000D3*
Y1144000D3*
Y1194000D3*
Y1244000D3*
X1010339Y606500D3*
Y656500D3*
Y706500D3*
Y756500D3*
X719000D3*
Y706500D3*
Y656500D3*
Y606500D3*
M02*
