G04 DipTrace 3.0.0.2*
G04 TopMask.gbr*
%MOIN*%
G04 #@! TF.FileFunction,Soldermask,Top*
G04 #@! TF.Part,Single*
%ADD35C,0.03937*%
%ADD42R,0.08674X0.031622*%
%ADD44R,0.052X0.052*%
%ADD46R,0.152882X0.058*%
%ADD48R,0.082803X0.082803*%
%ADD50R,0.065087X0.059181*%
%ADD52R,0.070992X0.063118*%
%ADD54R,0.023748X0.06115*%
%ADD56R,0.067055X0.059181*%
%ADD58R,0.059181X0.067055*%
%FSLAX26Y26*%
G04*
G70*
G90*
G75*
G01*
G04 TopMask*
%LPD*%
D58*
X1106500Y1406500D3*
X1031697D3*
D56*
X731402Y1306598D3*
Y1381402D3*
D58*
X719098Y531598D3*
X793902D3*
D35*
X481500Y1594000D3*
X1606500D3*
X481500Y519000D3*
X1606500D3*
D54*
X1106500Y1494000D3*
X1080909D3*
X1055319D3*
X1029728D3*
X1004138D3*
D52*
X1181303Y1502858D3*
X929335D3*
D50*
X1190161Y1599315D3*
X920476D3*
D48*
X1102563D3*
X1008075D3*
D46*
X1394000Y1219000D3*
Y1119000D3*
Y1019000D3*
X1568803D3*
Y1119000D3*
Y1219000D3*
X1394000Y806500D3*
Y706500D3*
Y606500D3*
X1568803D3*
Y706500D3*
Y806500D3*
D44*
X594000Y1044000D3*
Y994000D3*
Y944000D3*
Y1094000D3*
Y1144000D3*
Y1194000D3*
Y1244000D3*
X644000D3*
Y1194000D3*
Y1144000D3*
Y1094000D3*
Y1044000D3*
Y994000D3*
Y944000D3*
X544000Y1244000D3*
Y1194000D3*
Y1144000D3*
Y1094000D3*
Y1044000D3*
Y994000D3*
Y944000D3*
X494000D3*
Y994000D3*
Y1044000D3*
Y1094000D3*
Y1144000D3*
Y1194000D3*
Y1244000D3*
X1019000Y944000D3*
Y994000D3*
Y1044000D3*
Y1094000D3*
Y1144000D3*
Y1194000D3*
Y1244000D3*
X1069000D3*
Y1194000D3*
Y1144000D3*
Y1094000D3*
Y1044000D3*
Y994000D3*
Y944000D3*
X1119000D3*
Y994000D3*
Y1044000D3*
Y1094000D3*
Y1144000D3*
Y1194000D3*
Y1244000D3*
X1169000D3*
Y1194000D3*
Y1144000D3*
Y1094000D3*
Y1044000D3*
Y994000D3*
Y944000D3*
X644000Y756500D3*
X594000D3*
X544000D3*
X494000D3*
X644000Y706500D3*
X594000D3*
X544000D3*
X494000D3*
Y656500D3*
X544000D3*
X594000D3*
X644000D3*
Y606500D3*
X594000D3*
X544000D3*
X494000D3*
X1094000Y756500D3*
X1144000D3*
X1194000D3*
Y706500D3*
X1144000D3*
X1094000D3*
Y656500D3*
X1144000D3*
X1194000D3*
Y606500D3*
X1144000D3*
X1094000D3*
X1244000Y756500D3*
Y706500D3*
Y656500D3*
Y606500D3*
D42*
X719000Y1244000D3*
Y1194000D3*
Y1144000D3*
Y1094000D3*
Y1044000D3*
Y994000D3*
Y944000D3*
X931598D3*
Y994000D3*
Y1044000D3*
Y1094000D3*
Y1144000D3*
Y1194000D3*
Y1244000D3*
X1010339Y606500D3*
Y656500D3*
Y706500D3*
Y756500D3*
X719000D3*
Y706500D3*
Y656500D3*
Y606500D3*
G36*
X994000Y1265000D2*
X1187751D1*
Y1223000D1*
X994000D1*
Y1265000D1*
G37*
G36*
Y1215500D2*
X1187751D1*
Y1173500D1*
X994000D1*
Y1215500D1*
G37*
G36*
Y1164500D2*
X1187751D1*
Y1122500D1*
X994000D1*
Y1164500D1*
G37*
G36*
Y1115000D2*
X1187751D1*
Y1073000D1*
X994000D1*
Y1115000D1*
G37*
G36*
Y1064000D2*
X1187751D1*
Y1022000D1*
X994000D1*
Y1064000D1*
G37*
G36*
Y1014500D2*
X1187751D1*
Y972500D1*
X994000D1*
Y1014500D1*
G37*
G36*
Y965000D2*
X1187751D1*
Y923000D1*
X994000D1*
Y965000D1*
G37*
G36*
X473500Y1265000D2*
X667251D1*
Y1223000D1*
X473500D1*
Y1265000D1*
G37*
G36*
Y1215500D2*
X667251D1*
Y1173500D1*
X473500D1*
Y1215500D1*
G37*
G36*
Y1164500D2*
X667251D1*
Y1122500D1*
X473500D1*
Y1164500D1*
G37*
G36*
Y1115000D2*
X667251D1*
Y1073000D1*
X473500D1*
Y1115000D1*
G37*
G36*
Y1064000D2*
X667251D1*
Y1022000D1*
X473500D1*
Y1064000D1*
G37*
G36*
Y1014500D2*
X667251D1*
Y972500D1*
X473500D1*
Y1014500D1*
G37*
G36*
Y965000D2*
X667251D1*
Y923000D1*
X473500D1*
Y965000D1*
G37*
G36*
X472000Y777500D2*
X665751D1*
Y735500D1*
X472000D1*
Y777500D1*
G37*
G36*
Y726500D2*
X665751D1*
Y684500D1*
X472000D1*
Y726500D1*
G37*
G36*
Y677000D2*
X665751D1*
Y635000D1*
X472000D1*
Y677000D1*
G37*
G36*
X1069000Y777500D2*
X1262751D1*
Y735500D1*
X1069000D1*
Y777500D1*
G37*
G36*
Y726500D2*
X1262751D1*
Y684500D1*
X1069000D1*
Y726500D1*
G37*
G36*
Y677000D2*
X1262751D1*
Y635000D1*
X1069000D1*
Y677000D1*
G37*
G36*
Y627500D2*
X1262751D1*
Y585500D1*
X1069000D1*
Y627500D1*
G37*
G36*
X472000D2*
X665751D1*
Y585500D1*
X472000D1*
Y627500D1*
G37*
M02*
