G04 DipTrace 3.0.0.2*
G04 TopPaste.gbr*
%MOIN*%
G04 #@! TF.FileFunction,Paste,Top*
G04 #@! TF.Part,Single*
%ADD43R,0.07074X0.015622*%
%ADD47R,0.136882X0.042*%
%ADD49R,0.066803X0.066803*%
%ADD51R,0.049087X0.043181*%
%ADD53R,0.054992X0.047118*%
%ADD55R,0.007748X0.04515*%
%ADD57R,0.051055X0.043181*%
%ADD59R,0.043181X0.051055*%
%FSLAX26Y26*%
G04*
G70*
G90*
G75*
G01*
G04 TopPaste*
%LPD*%
D59*
X1106500Y1406500D3*
X1031697D3*
D57*
X731402Y1306598D3*
Y1381402D3*
D59*
X719098Y531598D3*
X793902D3*
D55*
X1106500Y1494000D3*
X1080909D3*
X1055319D3*
X1029728D3*
X1004138D3*
D53*
X1181303Y1502858D3*
X929335D3*
D51*
X1190161Y1599315D3*
X920476D3*
D49*
X1102563D3*
X1008075D3*
D47*
X1394000Y1219000D3*
Y1119000D3*
Y1019000D3*
X1568803D3*
Y1119000D3*
Y1219000D3*
X1394000Y806500D3*
Y706500D3*
Y606500D3*
X1568803D3*
Y706500D3*
Y806500D3*
D43*
X719000Y1244000D3*
Y1194000D3*
Y1144000D3*
Y1094000D3*
Y1044000D3*
Y994000D3*
Y944000D3*
X931598D3*
Y994000D3*
Y1044000D3*
Y1094000D3*
Y1144000D3*
Y1194000D3*
Y1244000D3*
X1010339Y606500D3*
Y656500D3*
Y706500D3*
Y756500D3*
X719000D3*
Y706500D3*
Y656500D3*
Y606500D3*
G04 BotPaste*
M02*
