G04 DipTrace 3.0.0.2*
G04 TopSilk.gbr*
%MOIN*%
G04 #@! TF.FileFunction,Legend,Top*
G04 #@! TF.Part,Single*
%ADD10C,0.009843*%
%ADD23C,0.015768*%
%ADD28C,0.027557*%
%ADD60C,0.00772*%
%FSLAX26Y26*%
G04*
G70*
G90*
G75*
G01*
G04 TopSilk*
%LPD*%
X1147860Y1432071D2*
D10*
Y1380929D1*
X756972Y1265239D2*
X705831D1*
X677739Y506028D2*
Y557169D1*
D23*
X1106502Y1447750D3*
X1204917Y1547354D2*
D10*
Y1556805D1*
Y1642635D2*
Y1707583D1*
X905720D1*
Y1642635D1*
Y1547354D2*
Y1556805D1*
D28*
X1617236Y1270966D3*
X1581399Y1265077D2*
D10*
Y1268992D1*
X1381404D1*
Y1265077D1*
X1581399Y969000D2*
X1381404D1*
X1581399D2*
Y972947D1*
X1381404Y969000D2*
Y972947D1*
D28*
X1617236Y858466D3*
X1581399Y852577D2*
D10*
Y856492D1*
X1381404D1*
Y852577D1*
X1581399Y556500D2*
X1381404D1*
X1581399D2*
Y560447D1*
X1381404Y556500D2*
Y560447D1*
X774111Y1263297D2*
Y924703D1*
X876487Y1263297D2*
Y924703D1*
X774111D2*
X876487D1*
X774111Y1263297D2*
X805605D1*
X844994D2*
X876487D1*
X805605D2*
G03X844994Y1263297I19694J-12D01*
G01*
X951268Y579139D2*
Y783861D1*
X778071Y579139D2*
Y783861D1*
X951268D2*
X778071D1*
X951268Y579139D2*
X892240D1*
X837098D2*
X778071D1*
X892240D2*
G03X837098Y579139I-27571J-15D01*
G01*
X1081202Y1348076D2*
D60*
X1078825Y1352829D1*
X1074016Y1357637D1*
X1069263Y1360014D1*
X1059702D1*
X1054893Y1357637D1*
X1050140Y1352829D1*
X1047708Y1348076D1*
X1045332Y1340890D1*
Y1328897D1*
X1047708Y1321767D1*
X1050140Y1316959D1*
X1054893Y1312206D1*
X1059702Y1309774D1*
X1069263D1*
X1074016Y1312206D1*
X1078825Y1316959D1*
X1081202Y1321767D1*
X1096641Y1350397D2*
X1101449Y1352829D1*
X1108634Y1359958D1*
Y1309774D1*
X640589Y1329584D2*
X635836Y1327208D1*
X631028Y1322399D1*
X628651Y1317646D1*
Y1308084D1*
X631028Y1303276D1*
X635836Y1298523D1*
X640589Y1296091D1*
X647774Y1293714D1*
X659768D1*
X666897Y1296091D1*
X671706Y1298523D1*
X676459Y1303276D1*
X678891Y1308084D1*
Y1317646D1*
X676459Y1322399D1*
X671706Y1327208D1*
X666898Y1329584D1*
X640644Y1347455D2*
X638268D1*
X633459Y1349832D1*
X631083Y1352209D1*
X628706Y1357017D1*
Y1366579D1*
X631083Y1371332D1*
X633459Y1373708D1*
X638268Y1376140D1*
X643021D1*
X647830Y1373708D1*
X654959Y1368955D1*
X678891Y1345023D1*
Y1378517D1*
X742084Y473174D2*
X739708Y477927D1*
X734899Y482736D1*
X730146Y485112D1*
X720584D1*
X715776Y482736D1*
X711023Y477927D1*
X708591Y473174D1*
X706214Y465989D1*
Y453995D1*
X708591Y446866D1*
X711023Y442057D1*
X715776Y437304D1*
X720584Y434872D1*
X730146D1*
X734899Y437304D1*
X739708Y442057D1*
X742084Y446866D1*
X762332Y485057D2*
X788585D1*
X774270Y465934D1*
X781455D1*
X786208Y463557D1*
X788585Y461180D1*
X791017Y453995D1*
Y449242D1*
X788585Y442057D1*
X783832Y437249D1*
X776647Y434872D1*
X769462D1*
X762332Y437249D1*
X759955Y439681D1*
X757523Y444434D1*
X1053568Y1780806D2*
Y1742559D1*
X1051192Y1735374D1*
X1048760Y1732998D1*
X1044007Y1730566D1*
X1039198D1*
X1034445Y1732998D1*
X1032069Y1735374D1*
X1029637Y1742559D1*
Y1747312D1*
X1069008Y1771189D2*
X1073816Y1773621D1*
X1081001Y1780750D1*
Y1730566D1*
X1468901Y1357971D2*
Y1319725D1*
X1466525Y1312540D1*
X1464093Y1310163D1*
X1459340Y1307731D1*
X1454531D1*
X1449778Y1310163D1*
X1447401Y1312540D1*
X1444969Y1319725D1*
Y1324478D1*
X1486772Y1345978D2*
Y1348354D1*
X1489149Y1353163D1*
X1491525Y1355539D1*
X1496334Y1357916D1*
X1505896D1*
X1510649Y1355539D1*
X1513025Y1353163D1*
X1515457Y1348354D1*
Y1343601D1*
X1513025Y1338793D1*
X1508272Y1331663D1*
X1484340Y1307731D1*
X1517834D1*
X1468901Y945471D2*
Y907225D1*
X1466525Y900040D1*
X1464093Y897663D1*
X1459340Y895231D1*
X1454531D1*
X1449778Y897663D1*
X1447401Y900040D1*
X1444969Y907225D1*
Y911978D1*
X1489149Y945416D2*
X1515402D1*
X1501087Y926293D1*
X1508272D1*
X1513025Y923916D1*
X1515402Y921539D1*
X1517834Y914354D1*
Y909601D1*
X1515402Y902416D1*
X1510649Y897608D1*
X1503464Y895231D1*
X1496279D1*
X1489149Y897608D1*
X1486772Y900040D1*
X1484340Y904793D1*
X794836Y1336520D2*
Y1300650D1*
X797213Y1293465D1*
X802021Y1288712D1*
X809206Y1286280D1*
X813959D1*
X821144Y1288712D1*
X825953Y1293465D1*
X828330Y1300650D1*
Y1336520D1*
X843769Y1326903D2*
X848577Y1329335D1*
X855762Y1336464D1*
Y1286280D1*
X823456Y857084D2*
Y821214D1*
X825833Y814029D1*
X830641Y809276D1*
X837826Y806844D1*
X842580D1*
X849765Y809276D1*
X854573Y814029D1*
X856950Y821214D1*
Y857084D1*
X874821Y845090D2*
Y847467D1*
X877197Y852276D1*
X879574Y854652D1*
X884382Y857029D1*
X893944D1*
X898697Y854652D1*
X901074Y852276D1*
X903506Y847467D1*
Y842714D1*
X901074Y837905D1*
X896321Y830776D1*
X872389Y806844D1*
X905882D1*
M02*
